<svg width="28" height="27" viewBox="0 0 28 27" fill="none" xmlns="http://www.w3.org/2000/svg">
<path d="M0.192192 5.38686C0.0860471 3.18027 1.78861 1.30166 3.99497 1.19086L23.7132 0.20065C25.9196 0.0898513 27.7942 1.78882 27.9004 3.99541L27.952 5.06775C27.9785 5.61939 27.5528 6.08905 27.0013 6.11675L1.29056 7.40789C0.738975 7.43559 0.270311 7.01084 0.243775 6.4592L0.192192 5.38686Z" fill="#9F9FA2"/>
<path fill-rule="evenodd" clip-rule="evenodd" d="M3.12915 9.95801C1.4723 9.95801 0.12915 11.3012 0.12915 12.958V20.155C0.12915 23.4687 2.81544 26.155 6.12915 26.155H21.8708C25.1845 26.155 27.8708 23.4687 27.8708 20.155V12.958C27.8708 11.3012 26.5276 9.95801 24.8708 9.95801H3.12915ZM17.4507 19.0947C17.5591 18.9864 17.697 18.8192 17.7266 18.7798C17.8842 18.5731 17.963 18.3173 17.963 18.0624C17.963 17.7761 17.8743 17.5104 17.7069 17.2939C17.6931 17.2802 17.6663 17.251 17.6312 17.2129C17.5657 17.1416 17.4716 17.0393 17.3818 16.9495C16.5739 16.0836 14.4657 14.6666 13.3624 14.2336C13.1949 14.1657 12.7713 14.0171 12.5447 14.0073C12.328 14.0073 12.1211 14.0565 11.9241 14.1549C11.6778 14.2926 11.4808 14.5091 11.3724 14.765C11.3034 14.9421 11.1951 15.4735 11.1951 15.4833C11.0867 16.0639 11.0276 17.0085 11.0276 18.0516C11.0276 19.0465 11.0867 19.9508 11.1754 20.5412C11.1778 20.5436 11.1863 20.5859 11.1994 20.6515C11.2395 20.8509 11.3228 21.2663 11.4118 21.4367C11.6285 21.8499 12.0521 22.1058 12.5053 22.1058H12.5447C12.8403 22.0959 13.4609 21.8401 13.4609 21.8303C14.5051 21.3973 16.5641 20.0492 17.3916 19.1537L17.4507 19.0947Z" fill="#9F9FA2"/>
</svg>
