<svg width="28" height="28" viewBox="0 0 28 28" fill="none" xmlns="http://www.w3.org/2000/svg">
<path d="M4 2.4C4 1.07452 5.07452 0 6.4 0H21.6C22.9255 0 24 1.07452 24 2.4C24 2.73137 23.7314 3 23.4 3H4.6C4.26863 3 4 2.73137 4 2.4Z" fill="#9F9FA2"/>
<path d="M1 7.9C1 6.57452 2.07452 5.5 3.4 5.5H24.6C25.9255 5.5 27 6.57452 27 7.9C27 8.23137 26.7314 8.5 26.4 8.5H1.6C1.26863 8.5 1 8.23137 1 7.9Z" fill="#9F9FA2"/>
<path fill-rule="evenodd" clip-rule="evenodd" d="M3 11.4074C1.34315 11.4074 0 12.7506 0 14.4074V22C0 25.3137 2.68629 28 6 28H22C25.3137 28 28 25.3137 28 22V14.4074C28 12.7506 26.6569 11.4074 25 11.4074H3ZM17.483 20.7673C17.5923 20.6564 17.7315 20.485 17.7614 20.4447C17.9205 20.233 18 19.9709 18 19.7098C18 19.4165 17.9105 19.1443 17.7415 18.9225C17.7276 18.9085 17.7005 18.8785 17.6652 18.8395C17.599 18.7665 17.5041 18.6617 17.4134 18.5697C16.598 17.6826 14.4702 16.231 13.3565 15.7875C13.1875 15.7179 12.7599 15.5657 12.5312 15.5556C12.3125 15.5556 12.1037 15.606 11.9048 15.7068C11.6562 15.848 11.4574 16.0697 11.348 16.3318C11.2784 16.5133 11.169 17.0576 11.169 17.0677C11.0597 17.6625 11 18.6302 11 19.6987C11 20.7179 11.0597 21.6443 11.1491 22.2491C11.1516 22.2516 11.1602 22.2949 11.1734 22.3621C11.2138 22.5664 11.298 22.992 11.3878 23.1664C11.6065 23.5898 12.0341 23.8519 12.4915 23.8519H12.5312C12.8295 23.8418 13.456 23.5797 13.456 23.5697C14.5099 23.1261 16.5881 21.7451 17.4233 20.8277L17.483 20.7673Z" fill="#9F9FA2"/>
</svg>
